<svg version="1.0" xmlns="http://www.w3.org/2000/svg" width="933.333" height="933.333" viewBox="0 0 700 700"><path d="M341.5 49.7c-21 1.9-46.7 12.2-67.5 27.1-12.3 8.8-32.8 28.6-44.5 43.1-50.7 62.9-86.8 161.2-95.9 261.1-7.7 83.6 4.5 149.4 36.5 197.6 9.4 14.2 28.4 33.4 41.8 42.3 22.2 14.7 44.9 23.2 73.7 27.7 14.1 2.1 95.9 3.2 118.1 1.5 68.5-5.3 116.2-36.4 144.8-94.6 13.6-27.6 21.3-58.5 24.6-98 1.3-15.5.7-59-1.1-76.5-4.5-45.7-13-85.9-27-128-21.9-65.9-51-116.9-88-154-13.3-13.3-22.2-20.5-36.2-29.3-24.3-15.2-52.8-22.4-79.3-20zm25 115.4c34 12.7 69.6 69.5 86.4 137.9 11.4 46.4 16.1 108.4 10.6 140.7-8.3 48.4-35.6 74.3-85.6 81.3-12.4 1.8-40.3 1.5-53.4-.5-50.2-7.6-77.5-36.6-83.6-88.6-1.5-13.4-.6-57.4 1.6-75.9 4.6-38.7 12.4-71.6 24.2-101.5 20.4-51.7 49.2-87.1 77.6-95 6.3-1.8 14.8-1.2 22.2 1.6z"/></svg>