<?xml version="1.0" encoding="utf-8"?><svg xmlns="http://www.w3.org/2000/svg" xmlns:xlink="http://www.w3.org/1999/xlink"><symbol viewBox="0 0 499.992 499.993" id="basket" xmlns="http://www.w3.org/2000/svg"><path d="M158.893 83.304l-96.477 126.79h62.024l73.693-97.014c-17.375-2.696-32.065-13.816-39.24-29.776zm47.324 13.705c1.373 0 2.756-.087 4.143-.249a35.771 35.771 0 003.963-.688c16.479-3.844 27.557-18.577 27.461-34.813 0-.42-.035-.833-.023-1.253a35.45 35.45 0 00-.884-6.635c-3.828-16.407-18.444-27.49-34.598-27.49-2.675 0-5.391.305-8.107.938-18.226 4.25-29.846 21.817-27.037 40.015.139.896.275 1.793.484 2.689 3.826 16.406 18.443 27.486 34.598 27.486zm169.335 113.085h62.024l-96.479-126.79c-7.174 15.96-21.865 27.081-39.242 29.776l73.697 97.014zM301.82 26.817a35.678 35.678 0 00-8.106-.938c-16.153 0-30.771 11.083-34.598 27.49a35.88 35.88 0 00-.884 6.635c.011.421-.024.836-.024 1.256-.096 16.236 10.979 30.969 27.462 34.813 1.322.308 2.646.534 3.963.688 1.387.163 2.771.25 4.144.25 16.153 0 30.771-11.083 34.598-27.49.21-.896.349-1.793.485-2.689 2.807-18.2-8.813-35.765-27.04-40.015zM0 224.601l65.788 249.512h368.416l65.788-249.512H51.365z"/></symbol><symbol viewBox="0 0 24 24" id="dropdown" xmlns="http://www.w3.org/2000/svg"><path d="M7 9.5l5 5 5-5H7z"/></symbol><symbol viewBox="0 0 24 24" id="wa" xmlns="http://www.w3.org/2000/svg"><path fill-rule="evenodd" clip-rule="evenodd" d="M18.403 5.633A8.919 8.919 0 0012.053 3c-4.948 0-8.976 4.027-8.978 8.977 0 1.582.413 3.126 1.198 4.488L3 21.116l4.759-1.249a8.981 8.981 0 004.29 1.093h.004c4.947 0 8.975-4.027 8.977-8.977a8.926 8.926 0 00-2.627-6.35m-6.35 13.812h-.003a7.446 7.446 0 01-3.798-1.041l-.272-.162-2.824.741.753-2.753-.177-.282a7.448 7.448 0 01-1.141-3.971c.002-4.114 3.349-7.461 7.465-7.461a7.413 7.413 0 015.275 2.188 7.42 7.42 0 012.183 5.279c-.002 4.114-3.349 7.462-7.461 7.462m4.093-5.589c-.225-.113-1.327-.655-1.533-.73-.205-.075-.354-.112-.504.112s-.58.729-.711.879-.262.168-.486.056-.947-.349-1.804-1.113c-.667-.595-1.117-1.329-1.248-1.554s-.014-.346.099-.458c.101-.1.224-.262.336-.393.112-.131.149-.224.224-.374s.038-.281-.019-.393c-.056-.113-.505-1.217-.692-1.666-.181-.435-.366-.377-.504-.383a9.65 9.65 0 00-.429-.008.826.826 0 00-.599.28c-.206.225-.785.767-.785 1.871s.804 2.171.916 2.321c.112.15 1.582 2.415 3.832 3.387.536.231.954.369 1.279.473.537.171 1.026.146 1.413.089.431-.064 1.327-.542 1.514-1.066.187-.524.187-.973.131-1.067-.056-.094-.207-.151-.43-.263"/></symbol></svg>