<svg width="25" height="22" fill="none" xmlns="http://www.w3.org/2000/svg"><path d="M4.265 7.375l3.779-6.298a1.188 1.188 0 012.197.464h.296l-.455.757-3.047 5.077h10.93L14.92 2.298h0A1.186 1.186 0 0114.985.98h0a1.19 1.19 0 011.973.097s0 0 0 0l3.777 6.298h2.078c.314 0 .617.125.84.348l-.354.353.353-.353c.223.223.348.525.348.84v1.375c0 .315-.125.617-.348.84l-.353-.354.353.353a1.188 1.188 0 01-.84.348h-.479l-2.43 8.514h0a1.531 1.531 0 01-1.475 1.111M4.265 7.375L18.43 20.25M4.265 7.375H2.188c-.315 0-.617.125-.84.348l.35.35-.35-.35a1.187 1.187 0 00-.348.84v1.375a1.187 1.187 0 001.188 1.187h.479l2.432 8.514.48-.137-.48.138a1.532 1.532 0 001.475 1.11M4.265 7.375l2.31 13.375m11.853 0l.001-.5m0 .5h0v-.5m0 .5H6.574l-.001-.5m11.855 0H6.574m0 0v.5h0m0-.5v.5m.926-7.375a.875.875 0 011.75 0v2.75a.875.875 0 11-1.75 0v-2.75zm4.125 0a.875.875 0 011.75 0v2.75a.875.875 0 11-1.75 0v-2.75zm5-.875c.232 0 .455.092.619.256l.353-.353-.353.353a.875.875 0 01.256.62v2.75a.875.875 0 11-1.75 0v-2.75a.875.875 0 01.875-.876z" stroke="#4A4A4A"/></svg>