<svg width="144" height="146" fill="none" xmlns="http://www.w3.org/2000/svg"><path d="M142.388 57.64a73.922 73.922 0 01-5.336 46.647l-1.779-.917a71.926 71.926 0 005.159-45.316c-3.386-15.95-12.084-30.226-24.625-40.432-12.539-10.205-28.158-15.72-44.23-15.62-16.071.098-31.623 5.803-44.04 16.161C15.117 28.523 6.59 42.904 3.394 58.895.2 74.885 2.531 91.503 9.996 105.953c7.465 14.45 19.606 25.847 34.375 32.282a69.08 69.08 0 0044.818 3.591l.539 1.927a71.084 71.084 0 01-46.156-3.684c-15.195-6.621-27.679-18.344-35.352-33.198C.546 92.017-1.85 74.937 1.434 58.503 4.72 42.068 13.484 27.28 26.255 16.628 39.027 5.974 55.027.103 71.565 0c16.538-.101 32.607 5.574 45.505 16.07 12.898 10.497 21.838 25.175 25.318 41.568z" fill="#000" fill-opacity=".2"/></svg>