<svg width="34" height="48" fill="none" xmlns="http://www.w3.org/2000/svg"><path fill-rule="evenodd" clip-rule="evenodd" d="M20.535 29.581C27.113 27.991 32 22.067 32 15c0-8.284-6.716-15-15-15C8.716 0 2 6.716 2 15c0 7.067 4.886 12.992 11.465 14.581L17 34l3.535-4.419z" fill="#00B4AB"/><path opacity=".4" fill-rule="evenodd" clip-rule="evenodd" d="M19.121 25.14C23.068 24.113 26 20.279 26 15.707 26 10.346 21.97 6 17 6s-9 4.345-9 9.706c0 4.572 2.932 8.406 6.879 9.435L17 28l2.121-2.86z" fill="#F2FBFB"/><g opacity=".2" filter="url(#filter0_f_471_1429)"><ellipse cx="17" cy="36.5" rx="9" ry="3.5" fill="#004744"/></g><defs><filter id="filter0_f_471_1429" x="0" y="25" width="34" height="23" filterUnits="userSpaceOnUse" color-interpolation-filters="sRGB"><feFlood flood-opacity="0" result="BackgroundImageFix"/><feBlend in="SourceGraphic" in2="BackgroundImageFix" result="shape"/><feGaussianBlur stdDeviation="4" result="effect1_foregroundBlur_471_1429"/></filter></defs></svg>