<svg width="170" height="67" fill="none" xmlns="http://www.w3.org/2000/svg"><path d="M12.992 45.48c6.464 0 8.992-4.64 8.992-10.176 0-8.224-4.608-17.408-10.592-17.408C5.408 17.896.8 27.08.8 35.304.8 40.84 3.328 45.48 9.792 45.48h3.2zm-1.6-5.696c-3.392 0-5.408-1.44-5.408-5.184 0-7.072 3.264-11.52 5.408-11.52 2.144 0 5.408 4.448 5.408 11.52 0 3.744-2.016 5.184-5.408 5.184zM29.245 45c.352 0 1.056 0 1.088-.512 0-.576-1.088-3.264-1.088-9.632 0-1.92.192-6.24 2.88-6.24 2.208 0 1.76 2.144 2.144 2.144.96 0 2.784-1.344 2.784-3.584 0-1.728-1.344-3.136-2.976-3.136-.864 0-1.632.512-2.304.992-.672.512-1.216 1.024-1.696 1.024-.64 0-.704-.608-.768-1.088-.032-.608-.608-.448-1.088-.448h-2.656c-.896.032-.64 2.016-.64 10.88 0 10.592.576 9.6 1.76 9.6h2.56zm18.08-25.152c-.64 0-4.224.896-4.384 2.112-.16 1.12-.256 2.688-1.248 2.688-.256 0-.48-.128-.608-.128-1.216 0-1.92.288-1.92 2.72 0 .576-.032.992.384.992.352 0 .672-.384 1.248-.384 1.44 0 1.152 1.696 1.152 2.656 0 .608-.192 2.144-.192 6.08 0 1.76.32 8.896 1.536 8.896.736 0 4.448-1.792 4.448-2.272 0-.544-1.792-1.952-1.792-10.464 0-2.848 0-4.896 1.76-4.896.576 0 1.216.288 1.472.288.672 0 .672-1.216.672-1.664 0-1.088-.032-1.952-1.248-1.952-.416 0-.8.16-1.216.16-.48 0-.64-.384-.64-.96 0-.384.96-2.336.96-3.2 0-.608-.16-.672-.384-.672zM59.718 45.48c3.68 0 8.032-3.232 8.032-10.752 0-5.152-2.464-10.688-8.032-10.688s-8.032 5.536-8.032 10.688c0 7.52 4.352 10.752 8.032 10.752zm0-5.344c-3.232 0-4.064-3.648-4.064-6.208 0-2.528.896-6.112 4.064-6.112s4.064 3.584 4.064 6.112c0 2.56-.832 6.208-4.064 6.208z" fill="#4A4A4A"/><path d="M75.844 45c.384 0 1.152.096 1.152-.48 0-.448-2.016-6.208-2.016-14.56 0-.672-.032-4.608 1.024-4.608.992 0 2.048 3.232 2.368 3.936 2.848 6.56 1.792 9.568 4.48 9.568 2.144 0 1.056-3.008 3.744-9.568.32-.768 1.536-3.936 2.464-3.936 1.056 0 .96 3.936.96 4.608 0 8.352-1.824 14.112-1.824 14.56 0 .576.768.48 1.152.48h4.096c.8 0 1.76.608 1.76-11.392 0-15.808-1.664-15.232-2.208-15.232H90.5c-1.248 0-1.728-.032-3.52 2.144-3.392 4.128-3.584 6.464-4.064 6.464-.64 0-.832-2.336-3.84-6.464-1.568-2.144-2.016-2.144-3.264-2.144h-2.944c-.544 0-2.208-.576-2.208 15.232 0 12 .96 11.392 1.76 11.392h3.424zm32.198-6.304c0 1.568-.064 2.528-1.952 2.528-1.696 0-3.264-1.056-3.264-2.848 0-1.952 1.984-3.552 3.872-3.552 1.536 0 1.344 1.344 1.344 2.464v1.408zm-9.536.416c0 1.92.544 5.888 8.256 5.888 2.848 0 5.856-.064 5.856-.736 0-1.088-.256-1.92-.256-3.328 0-1.12-.064-10.592-.736-12.448-1.632-4.48-6.016-4.448-7.04-4.448-2.944 0-5.6 1.536-5.6 3.904 0 1.376 1.12 2.624 2.144 2.624.704 0 .224-2.752 3.488-2.752 1.408 0 3.104.864 3.104 2.496 0 1.056-.736 1.216-1.664 1.376-3.584.608-7.552 3.392-7.552 7.424zM120.475 45c.352 0 .928.096.928-.448 0-.896-.896-2.112-.896-8.544 0-4.768.896-7.712 3.296-7.712 2.624 0 2.624 4.512 2.624 6.432 0 3.04-1.216 9.472-1.216 9.952 0 .448.512.32 1.12.32h2.88c1.024 0 1.184-.032 1.184-11.52 0-5.28 1.056-5.184 2.176-5.184 1.216 0 3.392.64 3.392 6.752 0 5.344-1.216 8.864-1.216 9.44 0 .576.896.512 1.216.512h2.176c.928 0 2.144 1.088 2.144-8.672 0-4.096.128-11.808-5.76-11.808-1.152 0-2.144.448-2.944.896-.8.48-1.44.576-1.888.576-.8 0-1.824-1.472-3.392-1.472-1.344 0-2.304.352-3.008.736-.704.352-1.152.736-1.536.736-.32 0-.64-.224-.64-.544 0-.448.384-1.056.384-1.44 0-.48-.704-.512-1.376-.512-4.352 0-3.936-.416-3.936 13.056 0 9.472.672 8.448 1.76 8.448h2.528zm32.503-6.304c0 1.568-.064 2.528-1.952 2.528-1.696 0-3.264-1.056-3.264-2.848 0-1.952 1.984-3.552 3.872-3.552 1.536 0 1.344 1.344 1.344 2.464v1.408zm-9.536.416c0 1.92.544 5.888 8.256 5.888 2.848 0 5.856-.064 5.856-.736 0-1.088-.256-1.92-.256-3.328 0-1.12-.064-10.592-.736-12.448-1.632-4.48-6.016-4.448-7.04-4.448-2.944 0-5.6 1.536-5.6 3.904 0 1.376 1.12 2.624 2.144 2.624.704 0 .224-2.752 3.488-2.752 1.408 0 3.104.864 3.104 2.496 0 1.056-.736 1.216-1.664 1.376-3.584.608-7.552 3.392-7.552 7.424z" fill="#00B4AB"/></svg>